<svg xmlns="http://www.w3.org/2000/svg" xmlns:xlink="http://www.w3.org/1999/xlink" width="1080" zoomAndPan="magnify" viewBox="0 0 810 809.999993" height="1080" preserveAspectRatio="xMidYMid meet" version="1.0"><defs><g/></defs><g fill="#5147f6" fill-opacity="1"><g transform="translate(119.541619, 563.493536)"><g><path d="M 265.234375 -94.59375 C 265.234375 -74.625 260.125 -56.992188 249.90625 -41.703125 C 239.6875 -26.421875 224.910156 -14.421875 205.578125 -5.703125 C 186.253906 3.015625 162.960938 7.375 135.703125 7.375 C 106.867188 7.375 82.234375 3.097656 61.796875 -5.453125 C 41.359375 -14.015625 24.242188 -25.03125 10.453125 -38.5 L 45.15625 -77.25 C 57.039062 -66.625 70.347656 -58.34375 85.078125 -52.40625 C 99.816406 -46.46875 116.378906 -43.5 134.765625 -43.5 C 146.328125 -43.5 156.742188 -45.28125 166.015625 -48.84375 C 175.285156 -52.40625 182.613281 -57.628906 188 -64.515625 C 193.382812 -71.410156 196.078125 -79.929688 196.078125 -90.078125 C 196.078125 -98.953125 194.210938 -106.476562 190.484375 -112.65625 C 186.765625 -118.832031 180.3125 -124.335938 171.125 -129.171875 C 161.9375 -134.003906 149.101562 -138.878906 132.625 -143.796875 C 108.21875 -151.242188 88.171875 -159.484375 72.484375 -168.515625 C 56.796875 -177.546875 45.1875 -188.195312 37.65625 -200.46875 C 30.132812 -212.75 26.375 -227.289062 26.375 -244.09375 C 26.375 -263.101562 31.640625 -279.460938 42.171875 -293.171875 C 52.710938 -306.878906 66.9375 -317.453125 84.84375 -324.890625 C 102.75 -332.335938 122.796875 -336.0625 144.984375 -336.0625 C 169.535156 -336.0625 191.117188 -332.535156 209.734375 -325.484375 C 228.359375 -318.441406 244.722656 -308.34375 258.828125 -295.1875 L 225.78125 -257.640625 C 214.53125 -267.304688 202.410156 -274.4375 189.421875 -279.03125 C 176.429688 -283.625 163.125 -285.921875 149.5 -285.921875 C 139.039062 -285.921875 129.726562 -284.53125 121.5625 -281.75 C 113.40625 -278.976562 106.988281 -274.859375 102.3125 -269.390625 C 97.644531 -263.929688 95.3125 -257.003906 95.3125 -248.609375 C 95.3125 -240.835938 97.445312 -234.257812 101.71875 -228.875 C 106 -223.488281 113.40625 -218.5 123.9375 -213.90625 C 134.476562 -209.3125 148.941406 -204.160156 167.328125 -198.453125 C 186.972656 -192.429688 204.160156 -185.257812 218.890625 -176.9375 C 233.628906 -168.625 245.035156 -157.929688 253.109375 -144.859375 C 261.191406 -131.785156 265.234375 -115.03125 265.234375 -94.59375 Z M 265.234375 -94.59375 "/></g></g></g><g fill="#5147f6" fill-opacity="1"><g transform="translate(405.227608, 563.493536)"><g><path d="M 143.796875 -56.5625 L 214.140625 -328.703125 L 282.109375 -328.703125 L 182.53125 0 L 102.671875 0 L 3.5625 -328.703125 L 74.390625 -328.703125 Z M 143.796875 -56.5625 "/></g></g></g><path fill="#5147f6" d="M 102.925781 538.285156 C 89.601562 536.699219 74.222656 541.925781 61.992188 534.5625 C 50.109375 527.402344 51.3125 510.480469 51.863281 498.539062 C 53.09375 471.578125 59.582031 439.285156 40.992188 416.320312 C 36.582031 410.882812 30.992188 406.460938 24.738281 403.691406 C 28.769531 401.558594 32.488281 398.769531 35.722656 395.5625 C 45.214844 386.136719 50.410156 373.425781 52.457031 360.347656 C 54.765625 345.601562 53.300781 330.742188 52.210938 315.957031 C 51.648438 308.34375 51.195312 300.695312 51.53125 293.066406 C 51.777344 287.546875 52.429688 280.945312 56.28125 276.636719 C 60.753906 271.632812 68.375 270.367188 74.746094 270.222656 C 83.316406 270.027344 91.777344 271.367188 100.339844 270.34375 C 103.710938 269.945312 106.578125 261.605469 101.882812 262.167969 C 88.457031 263.765625 74.648438 259.304688 61.8125 265.195312 C 49.472656 270.851562 45.523438 284.15625 44.960938 296.710938 C 44.285156 312.03125 46.714844 327.265625 47.105469 342.554688 C 47.453125 356.046875 46.261719 370.433594 39.230469 382.289062 C 32.457031 393.71875 19.386719 401.472656 5.949219 399.597656 C 3.046875 399.191406 -0.0078125 404.867188 1.410156 407.082031 C 1.488281 408.359375 2.195312 409.265625 3.855469 409.035156 C 15.988281 407.347656 27.859375 413.960938 35.335938 423.191406 C 43.988281 433.878906 46.855469 447.953125 47.324219 461.390625 C 47.847656 476.402344 45.515625 491.324219 45.144531 506.304688 C 44.84375 518.445312 45.046875 533.566406 55.925781 541.445312 C 68.640625 550.648438 85.464844 544.894531 99.78125 546.601562 C 103.292969 547.03125 106.960938 538.769531 102.925781 538.285156 Z M 102.925781 538.285156 " fill-opacity="1" fill-rule="nonzero"/><path fill="#5147f6" d="M 707.070312 538.285156 C 720.394531 536.699219 735.773438 541.925781 748.003906 534.5625 C 759.886719 527.402344 758.683594 510.480469 758.136719 498.539062 C 756.902344 471.578125 750.417969 439.285156 769.003906 416.320312 C 773.414062 410.882812 779.003906 406.460938 785.257812 403.691406 C 781.226562 401.558594 777.507812 398.769531 774.273438 395.5625 C 764.78125 386.136719 759.585938 373.425781 757.539062 360.347656 C 755.230469 345.601562 756.695312 330.742188 757.785156 315.957031 C 758.347656 308.34375 758.800781 300.695312 758.464844 293.066406 C 758.21875 287.546875 757.570312 280.945312 753.714844 276.636719 C 749.242188 271.632812 741.621094 270.367188 735.25 270.222656 C 726.679688 270.027344 718.21875 271.367188 709.65625 270.34375 C 706.285156 269.945312 703.417969 261.605469 708.113281 262.167969 C 721.539062 263.765625 735.351562 259.304688 748.183594 265.195312 C 760.523438 270.851562 764.472656 284.15625 765.035156 296.710938 C 765.710938 312.03125 763.28125 327.265625 762.890625 342.554688 C 762.542969 356.046875 763.734375 370.433594 770.765625 382.289062 C 777.539062 393.71875 790.609375 401.472656 804.046875 399.597656 C 806.953125 399.191406 810.003906 404.867188 808.585938 407.082031 C 808.507812 408.359375 807.800781 409.265625 806.144531 409.035156 C 794.007812 407.347656 782.136719 413.960938 774.660156 423.191406 C 766.007812 433.878906 763.140625 447.953125 762.671875 461.390625 C 762.148438 476.402344 764.480469 491.324219 764.851562 506.304688 C 765.152344 518.445312 764.953125 533.566406 754.070312 541.445312 C 741.359375 550.648438 724.53125 544.894531 710.214844 546.601562 C 706.703125 547.03125 703.035156 538.769531 707.070312 538.285156 Z M 707.070312 538.285156 " fill-opacity="1" fill-rule="nonzero"/></svg>