<svg xmlns="http://www.w3.org/2000/svg" xmlns:xlink="http://www.w3.org/1999/xlink" width="158" zoomAndPan="magnify" viewBox="0 0 118.5 36.000001" height="48" preserveAspectRatio="xMidYMid meet" version="1.0"><defs><clipPath id="fd3e75e43c"><path d="M 22 18 L 48 18 L 48 34.65625 L 22 34.65625 Z M 22 18 " clip-rule="nonzero"/></clipPath><clipPath id="538f7c5719"><path d="M 30 0.359375 L 43 0.359375 L 43 21 L 30 21 Z M 30 0.359375 " clip-rule="nonzero"/></clipPath></defs><g clip-path="url(#fd3e75e43c)"><path fill="#000000" d="M 30.804688 26.648438 C 30.804688 26.648438 29.496094 27.441406 31.714844 27.667969 C 34.375 28.007812 35.800781 27.953125 38.753906 27.386719 C 38.753906 27.386719 39.546875 27.894531 40.625 28.292969 C 33.984375 31.132812 25.582031 28.125 30.804688 26.648438 Z M 29.953125 22.957031 C 29.953125 22.957031 28.53125 24.035156 30.746094 24.261719 C 33.640625 24.546875 35.921875 24.601562 39.832031 23.808594 C 39.832031 23.808594 40.339844 24.378906 41.195312 24.660156 C 33.1875 27.046875 24.21875 24.886719 29.953125 22.957031 Z M 45.621094 29.429688 C 45.621094 29.429688 46.589844 30.222656 44.542969 30.847656 C 40.738281 31.984375 28.589844 32.324219 25.183594 30.847656 C 23.992188 30.339844 26.261719 29.59375 27 29.484375 C 27.738281 29.316406 28.136719 29.316406 28.136719 29.316406 C 26.828125 28.40625 19.449219 31.191406 24.386719 31.976562 C 37.957031 34.191406 49.140625 31.011719 45.621094 29.421875 Z M 31.425781 19.097656 C 31.425781 19.097656 25.238281 20.574219 29.214844 21.082031 C 30.917969 21.308594 34.265625 21.253906 37.386719 21.027344 C 39.941406 20.800781 42.5 20.34375 42.5 20.34375 C 42.5 20.34375 41.589844 20.742188 40.964844 21.140625 C 34.664062 22.785156 22.570312 22.046875 26.035156 20.34375 C 28.984375 18.925781 31.425781 19.089844 31.425781 19.089844 Z M 42.5 25.285156 C 48.855469 21.992188 45.90625 18.8125 43.859375 19.210938 C 43.351562 19.324219 43.121094 19.4375 43.121094 19.4375 C 43.121094 19.4375 43.292969 19.097656 43.691406 18.984375 C 47.71875 17.5625 50.898438 23.242188 42.382812 25.457031 C 42.382812 25.457031 42.441406 25.398438 42.496094 25.285156 Z M 32.054688 34.253906 C 38.183594 34.652344 47.554688 34.027344 47.78125 31.132812 C 47.78125 31.132812 47.324219 32.269531 42.726562 33.121094 C 37.503906 34.085938 31.03125 33.96875 27.226562 33.347656 C 27.226562 33.347656 28.019531 34.027344 32.054688 34.253906 Z M 32.054688 34.253906 " fill-opacity="1" fill-rule="nonzero"/></g><g clip-path="url(#538f7c5719)"><path fill="#000000" d="M 38.636719 0.359375 C 38.636719 0.359375 42.15625 3.9375 35.289062 9.332031 C 29.78125 13.703125 34.03125 16.199219 35.289062 19.039062 C 32.050781 16.144531 29.726562 13.589844 31.3125 11.203125 C 33.640625 7.683594 40.058594 5.980469 38.636719 0.359375 Z M 36.820312 16.65625 C 38.46875 18.527344 36.367188 20.234375 36.367188 20.234375 C 36.367188 20.234375 40.566406 18.074219 38.636719 15.40625 C 36.878906 12.851562 35.515625 11.601562 42.894531 7.34375 C 42.894531 7.34375 31.257812 10.238281 36.820312 16.652344 Z M 36.820312 16.65625 " fill-opacity="1" fill-rule="nonzero"/></g><path fill="#000000" d="M 73.203125 23.394531 L 73.203125 14.761719 C 73.203125 12.5625 71.972656 11.066406 68.886719 11.066406 C 67.128906 11.066406 65.628906 11.503906 64.308594 12.03125 L 64.75 13.617188 C 65.71875 13.265625 66.953125 12.914062 68.273438 12.914062 C 69.945312 12.914062 70.738281 13.617188 70.738281 15.027344 L 70.738281 16.171875 L 69.863281 16.171875 C 65.636719 16.171875 63.699219 17.757812 63.699219 20.3125 C 63.699219 22.425781 65.019531 23.660156 67.398438 23.660156 C 68.894531 23.660156 70.039062 22.957031 71.097656 22.074219 L 71.273438 23.394531 L 73.210938 23.394531 Z M 70.738281 20.578125 C 69.855469 21.371094 68.886719 21.808594 68.007812 21.808594 C 66.859375 21.808594 66.15625 21.105469 66.15625 19.875 C 66.15625 18.640625 66.859375 17.757812 69.679688 17.757812 L 70.738281 17.757812 Z M 81.480469 23.394531 L 78.398438 23.394531 L 74.699219 11.328125 L 77.34375 11.328125 L 79.632812 18.730469 L 80.160156 20.933594 C 81.308594 17.761719 82.1875 14.503906 82.539062 11.332031 L 85.179688 11.332031 C 84.476562 15.296875 83.246094 19.609375 81.484375 23.398438 Z M 95.75 23.394531 L 95.75 14.761719 C 95.75 12.5625 94.515625 11.066406 91.433594 11.066406 C 89.671875 11.066406 88.171875 11.503906 86.851562 12.03125 L 87.203125 13.617188 C 88.261719 13.265625 89.496094 12.914062 90.816406 12.914062 C 92.488281 12.914062 93.28125 13.617188 93.28125 15.027344 L 93.28125 16.171875 L 92.402344 16.171875 C 88.171875 16.171875 86.238281 17.757812 86.238281 20.3125 C 86.238281 22.425781 87.46875 23.660156 89.847656 23.660156 C 91.433594 23.660156 92.578125 22.957031 93.632812 22.074219 L 93.808594 23.394531 Z M 93.28125 20.578125 C 92.402344 21.371094 91.433594 21.808594 90.550781 21.808594 C 89.40625 21.808594 88.703125 21.105469 88.703125 19.875 C 88.703125 18.640625 89.40625 17.757812 92.226562 17.757812 L 93.28125 17.757812 Z M 60.960938 25.421875 C 60.257812 26.476562 59.199219 27.269531 57.878906 27.710938 L 56.730469 26.300781 C 57.613281 25.773438 58.492188 24.980469 58.847656 24.277344 C 59.199219 23.660156 59.285156 22.777344 59.285156 20.753906 L 59.285156 7.011719 L 61.929688 7.011719 L 61.929688 20.578125 C 61.929688 23.308594 61.664062 24.363281 60.960938 25.421875 Z M 60.960938 25.421875 " fill-opacity="1" fill-rule="nonzero"/></svg>