<svg xmlns="http://www.w3.org/2000/svg" xmlns:xlink="http://www.w3.org/1999/xlink" width="158" zoomAndPan="magnify" viewBox="0 0 118.5 36.000001" height="48" preserveAspectRatio="xMidYMid meet" version="1.0"><defs><clipPath id="12bcfd1555"><path d="M 2 1.332031 L 116.65625 1.332031 L 116.65625 33 L 2 33 Z M 2 1.332031 " clip-rule="nonzero"/></clipPath></defs><g clip-path="url(#12bcfd1555)"><path fill="#000000" d="M 8.859375 2.207031 C 8.761719 2.792969 8.625 2.992188 7.8125 3.730469 C 7 4.464844 6.484375 5.011719 5.851562 5.796875 C 3.566406 8.632812 2.242188 12.296875 2.070312 16.265625 C 1.945312 19.09375 2.578125 21.664062 4.007812 24.136719 C 5.078125 25.992188 6.722656 27.878906 8.257812 29.015625 L 8.535156 29.222656 L 8.691406 30.523438 C 8.78125 31.242188 8.875 32.066406 8.90625 32.359375 L 8.964844 32.894531 L 9.257812 32.894531 C 9.59375 32.894531 9.5625 32.945312 9.652344 32.199219 C 9.75 31.339844 10.09375 29.4375 10.226562 29.015625 C 10.242188 28.96875 10.425781 28.804688 10.636719 28.648438 C 11.207031 28.226562 12.507812 26.90625 13.007812 26.238281 C 14.660156 24.042969 15.601562 21.714844 15.972656 18.910156 C 16.078125 18.125 16.09375 16.078125 16 15.351562 C 15.777344 13.628906 15.3125 11.972656 14.558594 10.214844 C 13.632812 8.066406 12.703125 6.714844 10.761719 4.691406 C 9.988281 3.886719 9.855469 3.695312 9.335938 2.671875 C 9.117188 2.25 8.9375 1.894531 8.929688 1.890625 C 8.921875 1.882812 8.890625 2.023438 8.859375 2.207031 M 87.238281 12.375 C 86.925781 12.890625 86.910156 13.042969 87.179688 13.042969 C 87.378906 13.042969 88.292969 13.222656 88.585938 13.320312 C 88.871094 13.414062 89.097656 13.652344 89.1875 13.949219 C 89.238281 14.113281 89.25 15.1875 89.246094 19 C 89.242188 23.984375 89.222656 24.507812 89.039062 24.824219 C 88.921875 25.03125 88.574219 25.195312 88.082031 25.273438 C 87.796875 25.316406 87.65625 25.363281 87.605469 25.429688 C 87.507812 25.558594 87.378906 25.9375 87.378906 26.097656 L 87.378906 26.230469 L 88.367188 26.261719 C 88.910156 26.28125 90.464844 26.296875 91.824219 26.300781 C 94.441406 26.308594 94.847656 26.28125 95.917969 26.042969 C 97.082031 25.789062 98.15625 25.304688 99.011719 24.664062 C 100.722656 23.375 101.570312 21.808594 101.761719 19.59375 C 101.957031 17.320312 101.265625 15.351562 99.785156 13.941406 C 98.804688 13.011719 97.699219 12.492188 96.113281 12.21875 C 95.640625 12.136719 95.214844 12.128906 91.488281 12.128906 L 87.386719 12.125 Z M 103.171875 12.355469 C 103.011719 12.597656 102.894531 12.980469 102.96875 13.023438 C 102.996094 13.042969 103.34375 13.109375 103.734375 13.167969 C 104.800781 13.332031 104.9375 13.445312 105.015625 14.191406 C 105.089844 14.878906 104.988281 24.410156 104.902344 24.695312 C 104.867188 24.8125 104.785156 24.949219 104.714844 25.003906 C 104.554688 25.128906 104.144531 25.25 103.632812 25.324219 L 103.230469 25.378906 L 103.09375 25.632812 C 103.015625 25.773438 102.949219 25.972656 102.945312 26.078125 L 102.933594 26.269531 L 105.429688 26.332031 C 108.945312 26.421875 109.898438 26.378906 111.113281 26.074219 C 112.703125 25.671875 114.03125 24.75 114.65625 23.613281 C 115.175781 22.667969 115.222656 21.277344 114.769531 20.363281 C 114.347656 19.515625 113.449219 18.820312 112.332031 18.464844 C 112.089844 18.390625 111.894531 18.316406 111.894531 18.300781 C 111.894531 18.285156 112 18.222656 112.128906 18.160156 C 113.269531 17.613281 113.996094 16.554688 114 15.449219 C 114.003906 14.519531 113.753906 13.890625 113.144531 13.289062 C 112.710938 12.859375 112.285156 12.617188 111.640625 12.429688 C 110.816406 12.195312 110.644531 12.183594 106.855469 12.179688 L 103.292969 12.175781 Z M 92.179688 13.195312 C 91.8125 13.242188 91.640625 13.339844 91.585938 13.527344 C 91.566406 13.601562 91.550781 15.964844 91.550781 18.773438 L 91.550781 23.886719 L 91.664062 24.171875 C 91.949219 24.871094 92.746094 25.171875 94.320312 25.171875 C 95.054688 25.171875 95.261719 25.15625 95.628906 25.066406 C 97.464844 24.605469 98.789062 23.082031 99.191406 20.957031 C 99.371094 20 99.367188 18.535156 99.183594 17.636719 C 99.03125 16.902344 98.660156 16.035156 98.238281 15.449219 C 97.734375 14.746094 96.765625 13.988281 95.949219 13.660156 C 94.96875 13.265625 93.261719 13.054688 92.179688 13.195312 M 107.585938 13.277344 C 107.507812 13.289062 107.410156 13.355469 107.363281 13.425781 C 107.285156 13.542969 107.277344 13.792969 107.257812 15.824219 C 107.238281 17.925781 107.246094 18.09375 107.324219 18.121094 C 107.371094 18.140625 107.929688 18.15625 108.566406 18.160156 C 110.191406 18.164062 110.644531 18.058594 111.109375 17.5625 C 111.519531 17.128906 111.695312 16.632812 111.695312 15.898438 C 111.695312 14.132812 110.480469 13.214844 108.199219 13.25 C 107.9375 13.253906 107.664062 13.265625 107.585938 13.277344 M 57.347656 16.863281 C 56.652344 16.96875 55.785156 17.394531 54.949219 18.035156 C 54.726562 18.207031 54.53125 18.335938 54.511719 18.316406 C 54.496094 18.300781 54.496094 18.007812 54.511719 17.664062 C 54.554688 16.777344 54.570312 16.792969 53.777344 17.054688 C 53.066406 17.289062 52.128906 17.523438 51.554688 17.609375 C 51.085938 17.679688 50.898438 17.765625 50.832031 17.945312 C 50.75 18.160156 50.902344 18.300781 51.441406 18.503906 C 52.019531 18.722656 52.28125 18.855469 52.410156 19 C 52.503906 19.101562 52.511719 19.1875 52.523438 20.886719 C 52.53125 21.863281 52.519531 23.164062 52.492188 23.773438 C 52.433594 25.257812 52.445312 25.238281 51.605469 25.398438 C 51.34375 25.449219 51.117188 25.503906 51.101562 25.519531 C 51.050781 25.566406 51.023438 26.03125 51.054688 26.207031 L 51.085938 26.371094 L 53.507812 26.371094 L 55.933594 26.367188 L 55.984375 26.179688 C 56.011719 26.074219 56.027344 25.886719 56.019531 25.757812 C 56 25.492188 56.003906 25.496094 55.386719 25.402344 C 54.90625 25.332031 54.703125 25.234375 54.625 25.035156 C 54.539062 24.824219 54.496094 19.65625 54.578125 19.386719 C 54.75 18.8125 56.074219 18.304688 57.011719 18.453125 C 57.703125 18.5625 58.164062 18.886719 58.449219 19.460938 C 58.707031 19.976562 58.730469 20.304688 58.714844 22.851562 L 58.699219 25.042969 L 58.585938 25.164062 C 58.457031 25.304688 58.226562 25.382812 57.8125 25.429688 C 57.390625 25.480469 57.351562 25.523438 57.359375 25.945312 C 57.363281 26.179688 57.386719 26.324219 57.433594 26.363281 C 57.488281 26.414062 57.742188 26.417969 58.679688 26.378906 C 59.417969 26.351562 60.277344 26.351562 60.976562 26.378906 C 61.867188 26.417969 62.109375 26.414062 62.164062 26.363281 C 62.210938 26.320312 62.242188 26.15625 62.257812 25.902344 L 62.28125 25.507812 L 62.089844 25.472656 C 61.695312 25.40625 61.289062 25.304688 61.109375 25.230469 C 60.734375 25.074219 60.75 25.1875 60.714844 22.324219 C 60.6875 19.996094 60.675781 19.726562 60.582031 19.304688 C 60.316406 18.109375 59.546875 17.230469 58.523438 16.945312 C 58.171875 16.847656 57.667969 16.8125 57.347656 16.863281 M 23.652344 17.039062 C 23.140625 17.226562 21.9375 17.53125 21.382812 17.613281 C 20.925781 17.679688 20.746094 17.769531 20.703125 17.9375 C 20.65625 18.113281 20.742188 18.179688 21.210938 18.347656 C 21.765625 18.542969 22.214844 18.777344 22.3125 18.925781 C 22.382812 19.03125 22.398438 19.253906 22.417969 20.425781 C 22.429688 21.183594 22.417969 22.472656 22.390625 23.289062 C 22.328125 25.257812 22.347656 25.210938 21.449219 25.414062 C 21.179688 25.476562 20.929688 25.542969 20.894531 25.566406 C 20.828125 25.609375 20.808594 26.132812 20.871094 26.222656 C 20.894531 26.257812 21.675781 26.273438 23.25 26.269531 L 25.59375 26.269531 L 25.636719 26.101562 C 25.660156 26.011719 25.675781 25.84375 25.664062 25.730469 L 25.652344 25.527344 L 25.195312 25.441406 C 24.671875 25.347656 24.464844 25.253906 24.339844 25.066406 C 24.257812 24.945312 24.25 24.707031 24.238281 22.152344 C 24.226562 20.109375 24.238281 19.335938 24.28125 19.234375 C 24.417969 18.910156 25.402344 18.421875 26.160156 18.300781 C 26.777344 18.203125 27.492188 18.417969 27.839844 18.800781 C 28.070312 19.050781 28.300781 19.511719 28.398438 19.902344 C 28.5 20.316406 28.550781 22.660156 28.480469 23.941406 C 28.414062 25.238281 28.394531 25.265625 27.546875 25.425781 C 27.289062 25.476562 27.070312 25.546875 27.035156 25.589844 C 26.972656 25.667969 26.949219 26.078125 27.003906 26.214844 C 27.03125 26.28125 27.300781 26.292969 29.371094 26.292969 C 31.546875 26.292969 31.710938 26.285156 31.734375 26.207031 C 31.800781 25.96875 31.820312 25.785156 31.792969 25.660156 C 31.765625 25.527344 31.734375 25.515625 31.328125 25.433594 C 30.796875 25.324219 30.5 25.199219 30.410156 25.042969 C 30.359375 24.953125 30.335938 24.316406 30.316406 22.050781 L 30.289062 19.171875 L 30.425781 19.046875 C 30.628906 18.863281 31.246094 18.570312 31.695312 18.449219 C 32.195312 18.3125 32.796875 18.332031 33.238281 18.503906 C 33.609375 18.644531 34.039062 19.054688 34.222656 19.445312 C 34.472656 19.976562 34.488281 20.144531 34.484375 22.546875 C 34.484375 24.519531 34.476562 24.800781 34.402344 24.964844 C 34.292969 25.207031 34.09375 25.320312 33.589844 25.425781 C 33.191406 25.507812 33.171875 25.519531 33.144531 25.664062 C 33.125 25.746094 33.125 25.917969 33.144531 26.042969 L 33.171875 26.269531 L 37.808594 26.269531 L 37.859375 26.09375 C 37.882812 26 37.90625 25.828125 37.90625 25.714844 L 37.90625 25.507812 L 37.582031 25.453125 C 37.0625 25.363281 36.636719 25.214844 36.507812 25.074219 L 36.382812 24.945312 L 36.355469 22.28125 C 36.324219 19.269531 36.324219 19.257812 35.902344 18.40625 C 35.3125 17.210938 34.011719 16.628906 32.691406 16.964844 C 32.070312 17.121094 30.957031 17.703125 30.3125 18.210938 C 30.058594 18.410156 29.96875 18.394531 29.792969 18.117188 C 29.417969 17.523438 28.699219 17.027344 28.046875 16.90625 C 27.667969 16.839844 27.144531 16.882812 26.722656 17.015625 C 26.226562 17.171875 25.351562 17.625 24.851562 17.984375 C 24.605469 18.160156 24.367188 18.296875 24.328125 18.289062 C 24.265625 18.277344 24.253906 18.164062 24.253906 17.632812 C 24.253906 17.035156 24.226562 16.855469 24.136719 16.871094 C 24.117188 16.875 23.902344 16.949219 23.652344 17.039062 M 44.320312 16.894531 C 43.441406 17.011719 42.847656 17.1875 42.144531 17.535156 C 41.210938 17.996094 40.558594 18.644531 40.085938 19.582031 C 39.835938 20.070312 39.703125 20.636719 39.667969 21.363281 C 39.589844 22.992188 40.085938 24.410156 41.058594 25.328125 C 41.449219 25.699219 41.597656 25.800781 42.042969 26.019531 C 42.984375 26.484375 44.261719 26.632812 45.296875 26.398438 C 45.425781 26.371094 45.726562 26.277344 45.972656 26.191406 C 47.140625 25.78125 47.90625 25.203125 48.507812 24.277344 C 49.511719 22.734375 49.519531 20.332031 48.523438 18.808594 C 47.929688 17.898438 47.058594 17.289062 45.953125 17.007812 C 45.589844 16.917969 44.640625 16.847656 44.320312 16.894531 M 67.515625 16.921875 C 67.148438 16.980469 66.324219 17.261719 65.847656 17.484375 C 65.28125 17.75 64.78125 18.167969 64.476562 18.617188 C 64.035156 19.277344 63.882812 19.863281 63.933594 20.714844 C 64.011719 21.972656 64.570312 22.828125 65.652344 23.347656 C 65.925781 23.476562 66.113281 23.597656 66.113281 23.640625 C 66.113281 23.710938 65.769531 23.945312 64.902344 24.476562 C 64.476562 24.738281 64.398438 24.835938 64.445312 25.039062 C 64.566406 25.527344 64.953125 25.972656 65.511719 26.261719 C 65.703125 26.363281 65.863281 26.464844 65.863281 26.484375 C 65.863281 26.503906 65.644531 26.675781 65.378906 26.867188 C 64.734375 27.320312 64.074219 27.871094 63.910156 28.082031 C 63.433594 28.707031 63.40625 29.285156 63.808594 30.113281 C 64.128906 30.765625 64.863281 31.386719 65.632812 31.652344 C 66.671875 32.007812 68.230469 31.996094 69.417969 31.621094 C 69.933594 31.460938 70.671875 31.09375 71.132812 30.769531 C 71.878906 30.246094 72.351562 29.71875 72.710938 29.011719 C 72.980469 28.472656 73.066406 28.074219 73.042969 27.433594 C 73.027344 26.976562 73.007812 26.875 72.871094 26.589844 C 72.6875 26.199219 72.308594 25.777344 71.945312 25.5625 C 71.457031 25.269531 70.636719 25.128906 68.558594 24.976562 C 67.96875 24.933594 67.375 24.867188 67.234375 24.828125 C 66.917969 24.738281 66.714844 24.535156 66.679688 24.273438 C 66.65625 24.101562 66.671875 24.050781 66.8125 23.894531 C 66.992188 23.691406 67.148438 23.636719 67.722656 23.589844 C 68.777344 23.503906 69.859375 23.007812 70.585938 22.28125 C 71.046875 21.824219 71.332031 21.277344 71.457031 20.621094 C 71.550781 20.132812 71.511719 19.210938 71.375 18.789062 C 71.351562 18.710938 71.390625 18.707031 71.816406 18.734375 C 72.546875 18.78125 72.871094 18.636719 73.097656 18.160156 C 73.203125 17.9375 73.226562 17.808594 73.226562 17.5 C 73.226562 17.292969 73.210938 17.105469 73.195312 17.089844 C 73.175781 17.070312 73.046875 17.132812 72.90625 17.230469 C 72.511719 17.5 72.355469 17.535156 71.605469 17.53125 L 70.929688 17.53125 L 70.105469 17.25 C 69.023438 16.882812 68.304688 16.789062 67.515625 16.921875 M 79.46875 16.894531 C 77.953125 17.097656 76.808594 17.625 75.972656 18.507812 C 75.25 19.269531 74.875 20.183594 74.816406 21.335938 C 74.707031 23.414062 75.578125 25.1875 77.089844 25.964844 C 77.921875 26.390625 78.976562 26.585938 79.921875 26.484375 C 80.445312 26.429688 81.339844 26.144531 81.925781 25.851562 C 83.039062 25.296875 83.875 24.257812 84.207031 23.019531 C 84.699219 21.191406 84.304688 19.359375 83.171875 18.167969 C 82.664062 17.636719 81.816406 17.167969 81.035156 16.988281 C 80.675781 16.910156 79.769531 16.851562 79.46875 16.894531 M 67.234375 17.808594 C 66.265625 17.941406 65.695312 18.855469 65.777344 20.140625 C 65.871094 21.566406 66.574219 22.511719 67.664062 22.664062 C 68.460938 22.777344 69.042969 22.496094 69.378906 21.835938 C 69.609375 21.382812 69.679688 21.050781 69.679688 20.414062 C 69.679688 19.757812 69.597656 19.363281 69.371094 18.898438 C 69.097656 18.339844 68.523438 17.902344 67.964844 17.832031 C 67.839844 17.816406 67.679688 17.796875 67.609375 17.789062 C 67.542969 17.78125 67.371094 17.789062 67.234375 17.808594 M 43.507812 17.910156 C 42.742188 18.058594 42.109375 18.746094 41.835938 19.71875 C 41.710938 20.175781 41.664062 21.320312 41.75 21.945312 C 41.9375 23.308594 42.554688 24.472656 43.382812 25.015625 C 43.945312 25.382812 44.226562 25.46875 44.894531 25.472656 C 45.4375 25.472656 45.488281 25.464844 45.800781 25.320312 C 46.765625 24.863281 47.191406 23.917969 47.191406 22.230469 C 47.191406 19.910156 46.191406 18.269531 44.570312 17.929688 C 44.191406 17.851562 43.839844 17.84375 43.507812 17.910156 M 78.65625 17.910156 C 78.089844 18.019531 77.503906 18.503906 77.203125 19.117188 C 76.773438 19.980469 76.722656 21.570312 77.074219 22.8125 C 77.535156 24.421875 78.585938 25.414062 79.921875 25.488281 C 80.457031 25.515625 80.820312 25.429688 81.210938 25.179688 C 81.734375 24.847656 82.039062 24.367188 82.21875 23.589844 C 82.363281 22.976562 82.351562 21.324219 82.199219 20.71875 C 81.808594 19.164062 80.9375 18.183594 79.730469 17.933594 C 79.316406 17.851562 78.996094 17.84375 78.65625 17.910156 M 107.335938 19.230469 C 107.25 19.253906 107.246094 19.371094 107.261719 21.644531 C 107.277344 24.011719 107.277344 24.039062 107.394531 24.324219 C 107.636719 24.925781 107.953125 25.105469 108.949219 25.207031 C 111.269531 25.445312 112.640625 24.382812 112.644531 22.34375 C 112.648438 21.40625 112.429688 20.824219 111.867188 20.261719 C 111.277344 19.675781 110.507812 19.367188 109.304688 19.25 C 108.792969 19.199219 107.511719 19.1875 107.335938 19.230469 M 118.171875 22.773438 C 117.628906 22.902344 117.082031 23.382812 116.882812 23.898438 C 116.730469 24.304688 116.757812 24.921875 116.953125 25.3125 C 117.109375 25.632812 117.417969 25.933594 117.792969 26.128906 C 118.03125 26.253906 118.109375 26.269531 118.558594 26.269531 C 118.996094 26.269531 119.09375 26.253906 119.339844 26.136719 C 119.710938 25.964844 120.007812 25.664062 120.195312 25.261719 C 120.328125 24.976562 120.351562 24.875 120.351562 24.53125 C 120.351562 24.203125 120.324219 24.082031 120.214844 23.839844 C 120.027344 23.4375 119.871094 23.242188 119.566406 23.042969 C 119.148438 22.769531 118.625 22.667969 118.171875 22.773438 M 118.132812 22.984375 C 117.183594 23.25 116.699219 24.292969 117.109375 25.191406 C 117.5625 26.191406 118.894531 26.429688 119.679688 25.648438 C 120.324219 25.007812 120.308594 23.972656 119.644531 23.339844 C 119.304688 23.011719 118.609375 22.847656 118.132812 22.984375 M 117.917969 23.398438 C 117.898438 23.417969 117.882812 23.929688 117.882812 24.539062 L 117.882812 25.648438 L 118.183594 25.648438 L 118.183594 24.65625 L 118.351562 24.65625 C 118.515625 24.65625 118.523438 24.667969 118.75 25.152344 C 118.96875 25.621094 118.988281 25.648438 119.136719 25.648438 C 119.320312 25.648438 119.316406 25.613281 119.023438 25.035156 C 118.914062 24.820312 118.832031 24.640625 118.84375 24.636719 C 118.851562 24.632812 118.921875 24.59375 119.003906 24.554688 C 119.191406 24.460938 119.300781 24.199219 119.269531 23.917969 C 119.222656 23.523438 118.949219 23.371094 118.253906 23.367188 C 118.085938 23.367188 117.9375 23.378906 117.917969 23.398438 M 118.183594 24.03125 L 118.183594 24.40625 L 118.484375 24.40625 C 118.855469 24.40625 118.980469 24.308594 118.980469 24.015625 C 118.980469 23.761719 118.890625 23.695312 118.503906 23.671875 L 118.183594 23.652344 Z M 66.828125 26.78125 C 66.3125 26.960938 65.695312 27.484375 65.46875 27.941406 C 65.273438 28.328125 65.253906 28.8125 65.421875 29.257812 C 65.640625 29.835938 66.414062 30.421875 67.238281 30.636719 C 67.714844 30.761719 68.699219 30.785156 69.257812 30.6875 C 70.632812 30.449219 71.515625 29.496094 71.386719 28.386719 C 71.265625 27.375 70.488281 26.914062 68.609375 26.742188 C 67.746094 26.664062 67.132812 26.679688 66.828125 26.78125 " fill-opacity="1" fill-rule="evenodd"/></g></svg>