<svg xmlns="http://www.w3.org/2000/svg" xmlns:xlink="http://www.w3.org/1999/xlink" width="158" zoomAndPan="magnify" viewBox="0 0 118.5 36.000001" height="48" preserveAspectRatio="xMidYMid meet" version="1.0"><path fill="#000000" d="M 74.21875 1.8125 C 73.492188 2.546875 73.921875 3.640625 74.9375 3.640625 C 75.953125 3.640625 76.382812 2.546875 75.65625 1.8125 C 75.167969 1.320312 74.707031 1.320312 74.21875 1.8125 M 28.519531 5.300781 C 27.824219 5.546875 27.300781 5.902344 26.929688 6.390625 C 26.804688 6.554688 25.433594 8.933594 23.878906 11.675781 L 21.050781 16.667969 L 21.050781 18.632812 L 23.945312 23.734375 C 25.535156 26.542969 27.015625 29.015625 27.230469 29.234375 C 27.445312 29.449219 27.886719 29.75 28.203125 29.898438 C 28.769531 30.160156 28.972656 30.171875 34.714844 30.171875 C 40.457031 30.171875 40.664062 30.160156 41.226562 29.898438 C 41.546875 29.75 41.984375 29.449219 42.203125 29.234375 C 42.417969 29.015625 43.894531 26.542969 45.488281 23.734375 L 48.382812 18.632812 L 48.382812 16.667969 L 45.488281 11.566406 C 43.894531 8.761719 42.417969 6.285156 42.203125 6.070312 C 41.984375 5.851562 41.546875 5.550781 41.226562 5.402344 C 40.667969 5.144531 40.421875 5.132812 34.910156 5.101562 C 29.703125 5.074219 29.113281 5.089844 28.519531 5.300781 M 50.921875 5.441406 C 49.714844 5.863281 48.960938 6.859375 48.960938 8.039062 C 48.960938 8.828125 49.128906 9.300781 49.582031 9.78125 C 50.042969 10.273438 50.371094 10.433594 52.003906 10.964844 C 53.859375 11.570312 54.324219 12.050781 53.792969 12.820312 C 53.3125 13.507812 51.78125 13.453125 50.363281 12.699219 C 49.460938 12.21875 48.867188 12.234375 48.582031 12.746094 C 48.273438 13.304688 48.507812 13.726562 49.414062 14.230469 C 51.835938 15.578125 54.820312 15.195312 55.671875 13.421875 C 56.09375 12.542969 56.078125 11.476562 55.628906 10.796875 C 55.1875 10.125 54.667969 9.820312 52.941406 9.210938 C 51.066406 8.554688 50.632812 8.148438 51.074219 7.472656 C 51.511719 6.800781 52.671875 6.773438 54.089844 7.40625 C 54.820312 7.730469 55.210938 7.730469 55.535156 7.402344 C 56.027344 6.90625 55.8125 6.253906 55.019531 5.84375 C 53.789062 5.214844 52.066406 5.042969 50.921875 5.441406 M 57.140625 5.515625 L 56.824219 5.832031 L 56.824219 11.464844 C 56.824219 16.964844 56.832031 17.105469 57.09375 17.4375 C 57.425781 17.863281 58.183594 17.910156 58.648438 17.53125 C 58.9375 17.296875 58.953125 17.199219 58.992188 15.402344 L 59.035156 13.519531 L 59.550781 14.023438 C 61.042969 15.476562 63.824219 15.351562 65.253906 13.761719 C 67.113281 11.6875 67.019531 8.085938 65.0625 6.3125 C 64.152344 5.488281 63.210938 5.15625 61.980469 5.226562 C 60.882812 5.289062 60.410156 5.496094 59.582031 6.261719 L 59.015625 6.785156 L 59.015625 6.371094 C 59.015625 6.085938 58.898438 5.835938 58.640625 5.578125 C 58.160156 5.09375 57.585938 5.070312 57.140625 5.515625 M 67.960938 5.347656 C 67.433594 5.605469 67.394531 5.933594 67.394531 10.207031 L 67.394531 14.296875 L 67.773438 14.675781 C 67.980469 14.886719 68.269531 15.054688 68.410156 15.054688 C 68.816406 15.054688 69.289062 14.796875 69.441406 14.492188 C 69.519531 14.335938 69.597656 13.222656 69.617188 11.941406 C 69.652344 9.75 69.667969 9.648438 70.011719 8.992188 C 70.421875 8.203125 71.183594 7.589844 72 7.382812 C 72.738281 7.195312 73.117188 6.71875 73.019531 6.105469 C 72.914062 5.433594 72.5 5.152344 71.753906 5.242188 C 71.023438 5.328125 70.519531 5.574219 69.988281 6.113281 C 69.617188 6.484375 69.589844 6.496094 69.589844 6.234375 C 69.589844 5.859375 68.910156 5.195312 68.535156 5.207031 C 68.371094 5.210938 68.109375 5.273438 67.960938 5.347656 M 74.40625 5.347656 C 74.253906 5.421875 74.066406 5.625 73.984375 5.800781 C 73.789062 6.238281 73.789062 14.015625 73.984375 14.453125 C 74.125 14.765625 74.585938 15.054688 74.9375 15.054688 C 75.289062 15.054688 75.75 14.765625 75.890625 14.453125 C 75.984375 14.242188 76.035156 12.765625 76.035156 10.046875 L 76.035156 5.957031 L 75.65625 5.578125 C 75.265625 5.183594 74.886719 5.113281 74.40625 5.347656 M 77.507812 5.496094 L 77.128906 5.824219 L 77.128906 14.429688 L 77.492188 14.742188 C 77.964844 15.152344 78.53125 15.152344 78.941406 14.738281 C 79.253906 14.421875 79.257812 14.40625 79.257812 11.851562 C 79.257812 10.4375 79.320312 9.0625 79.394531 8.792969 C 79.902344 6.949219 82.386719 6.601562 83.195312 8.261719 C 83.410156 8.699219 83.449219 9.136719 83.488281 11.652344 L 83.535156 14.539062 L 83.863281 14.796875 C 84.316406 15.15625 84.867188 15.128906 85.265625 14.730469 L 85.589844 14.402344 L 85.550781 10.9375 C 85.511719 7.671875 85.492188 7.4375 85.230469 6.949219 C 84.679688 5.921875 83.789062 5.339844 82.609375 5.230469 C 81.582031 5.136719 80.605469 5.449219 79.859375 6.113281 L 79.257812 6.644531 L 79.257812 6.261719 C 79.257812 5.734375 78.898438 5.332031 78.34375 5.246094 C 77.972656 5.183594 77.808594 5.234375 77.507812 5.496094 M 89.214844 5.472656 C 88.335938 5.8125 87.339844 6.792969 86.890625 7.757812 C 86.570312 8.441406 86.539062 8.640625 86.539062 10.0625 C 86.539062 11.503906 86.566406 11.679688 86.910156 12.425781 C 87.34375 13.367188 88.25 14.289062 89.15625 14.707031 C 89.632812 14.929688 89.996094 14.988281 90.859375 14.984375 C 92.066406 14.980469 92.632812 14.765625 93.5 14.003906 C 93.925781 13.628906 93.953125 13.621094 93.953125 13.878906 C 93.953125 14.308594 93.484375 15.136719 93.085938 15.414062 C 92.148438 16.074219 90.566406 16.15625 89.117188 15.625 C 87.785156 15.136719 87.457031 15.109375 87.125 15.441406 C 86.707031 15.863281 86.8125 16.460938 87.367188 16.835938 C 88.449219 17.570312 90.816406 17.949219 92.476562 17.660156 C 94.28125 17.34375 95.457031 16.382812 95.976562 14.796875 C 96.179688 14.167969 96.207031 13.589844 96.207031 9.953125 L 96.207031 5.824219 L 95.847656 5.511719 C 95.109375 4.871094 94.082031 5.328125 94.082031 6.292969 C 94.082031 6.546875 94.0625 6.753906 94.039062 6.753906 C 94.019531 6.753906 93.734375 6.5 93.410156 6.1875 C 93.074219 5.863281 92.5625 5.53125 92.207031 5.410156 C 91.359375 5.121094 90.054688 5.148438 89.214844 5.472656 M 61.078125 7.132812 C 60.410156 7.339844 59.902344 7.6875 59.535156 8.195312 C 58.464844 9.683594 58.867188 11.90625 60.371094 12.792969 C 60.886719 13.097656 61.066406 13.132812 61.847656 13.089844 C 62.605469 13.046875 62.816406 12.976562 63.230469 12.644531 C 64.675781 11.492188 64.753906 8.921875 63.382812 7.742188 C 63.101562 7.5 62.613281 7.234375 62.304688 7.15625 C 61.671875 6.996094 61.539062 6.992188 61.078125 7.132812 M 90.535156 7.164062 C 89.414062 7.578125 88.671875 8.707031 88.667969 9.996094 C 88.664062 11.898438 89.710938 13.109375 91.355469 13.109375 C 92.484375 13.109375 93.308594 12.546875 93.8125 11.425781 C 94.457031 9.996094 93.921875 8.128906 92.667969 7.417969 C 92.066406 7.078125 91.078125 6.960938 90.535156 7.164062 M 34.328125 9.339844 C 34.1875 9.398438 33.957031 9.578125 33.8125 9.734375 C 33.574219 10.003906 33.554688 10.238281 33.515625 13.414062 C 33.496094 15.28125 33.511719 17.003906 33.558594 17.242188 C 33.734375 18.214844 34.679688 18.597656 35.386719 17.988281 L 35.746094 17.675781 L 35.785156 14.007812 C 35.828125 9.933594 35.792969 9.695312 35.085938 9.398438 C 34.851562 9.300781 34.644531 9.222656 34.625 9.226562 C 34.605469 9.230469 34.472656 9.28125 34.328125 9.339844 M 30.203125 11.015625 C 29.546875 11.417969 28.417969 12.757812 27.984375 13.640625 C 27.40625 14.820312 27.175781 15.832031 27.175781 17.171875 C 27.175781 19.316406 27.894531 21.09375 29.371094 22.578125 C 32.316406 25.539062 36.996094 25.542969 39.9375 22.582031 C 41.425781 21.085938 42.171875 19.253906 42.160156 17.132812 C 42.144531 14.921875 41.339844 13.074219 39.707031 11.519531 C 38.84375 10.699219 38.507812 10.605469 37.957031 11.042969 C 37.707031 11.242188 37.617188 11.433594 37.617188 11.757812 C 37.617188 12.132812 37.742188 12.328125 38.371094 12.949219 C 39.738281 14.296875 40.261719 15.625 40.171875 17.511719 C 40.128906 18.421875 40.042969 18.789062 39.710938 19.503906 C 38.109375 22.953125 33.808594 23.894531 31.007812 21.410156 C 28.429688 19.128906 28.503906 14.894531 31.160156 12.746094 C 31.613281 12.378906 31.6875 12.25 31.6875 11.816406 C 31.6875 11.425781 31.609375 11.253906 31.347656 11.042969 C 30.929688 10.714844 30.703125 10.707031 30.203125 11.015625 M 49.382812 20.207031 C 49.175781 20.527344 49.15625 20.964844 49.15625 24.980469 C 49.15625 28.996094 49.175781 29.433594 49.382812 29.753906 C 49.78125 30.367188 50.9375 30.167969 51.175781 29.449219 C 51.21875 29.324219 51.375 29.386719 51.730469 29.65625 C 52.152344 29.980469 52.363281 30.042969 53.167969 30.085938 C 53.9375 30.125 54.214844 30.082031 54.691406 29.847656 C 55.777344 29.320312 56.414062 28.226562 56.53125 26.6875 C 56.667969 24.832031 56.089844 23.445312 54.910156 22.796875 C 54.039062 22.320312 52.75 22.308594 51.894531 22.765625 L 51.308594 23.078125 L 51.261719 21.738281 C 51.203125 20.121094 51.046875 19.855469 50.167969 19.855469 C 49.707031 19.855469 49.574219 19.914062 49.382812 20.207031 M 75.699219 20.386719 C 75.511719 20.597656 75.441406 20.90625 75.40625 21.6875 C 75.363281 22.648438 75.34375 22.710938 75.074219 22.710938 C 74.445312 22.710938 74.121094 23.621094 74.59375 24.050781 C 74.722656 24.171875 74.949219 24.265625 75.097656 24.265625 C 75.359375 24.265625 75.371094 24.335938 75.410156 26.570312 C 75.457031 29.117188 75.566406 29.535156 76.289062 29.910156 C 76.867188 30.210938 78.5625 30.175781 79.09375 29.847656 C 79.613281 29.53125 79.75 29.054688 79.453125 28.597656 C 79.25 28.285156 79.175781 28.261719 78.527344 28.316406 C 77.949219 28.367188 77.804688 28.335938 77.703125 28.144531 C 77.636719 28.019531 77.582031 27.09375 77.582031 26.09375 L 77.582031 24.265625 L 78.078125 24.265625 C 78.652344 24.265625 79 23.960938 79 23.457031 C 79 22.972656 78.675781 22.710938 78.085938 22.710938 L 77.582031 22.710938 L 77.582031 21.730469 C 77.582031 20.867188 77.542969 20.714844 77.265625 20.433594 C 76.847656 20.015625 76.054688 19.992188 75.699219 20.386719 M 59.597656 22.757812 C 58.222656 23.40625 57.574219 24.535156 57.574219 26.269531 C 57.574219 28.65625 58.949219 30.101562 61.21875 30.105469 C 62.953125 30.105469 63.996094 29.523438 64.648438 28.1875 C 64.964844 27.542969 65.011719 27.296875 65.011719 26.277344 C 65.011719 25.261719 64.964844 25.015625 64.648438 24.367188 C 63.996094 23.035156 62.953125 22.449219 61.21875 22.453125 C 60.464844 22.453125 60.09375 22.523438 59.597656 22.757812 M 68.234375 22.757812 C 66.859375 23.40625 66.210938 24.535156 66.210938 26.269531 C 66.210938 28.65625 67.585938 30.101562 69.855469 30.105469 C 71.589844 30.105469 72.636719 29.523438 73.285156 28.1875 C 73.601562 27.542969 73.648438 27.296875 73.648438 26.277344 C 73.648438 25.261719 73.601562 25.015625 73.285156 24.367188 C 72.636719 23.035156 71.589844 22.449219 69.855469 22.453125 C 69.101562 22.453125 68.730469 22.523438 68.234375 22.757812 M 52.316406 24.234375 C 51.660156 24.570312 51.359375 25.179688 51.355469 26.203125 C 51.351562 27.164062 51.550781 27.675781 52.089844 28.074219 C 53.160156 28.875 54.378906 27.863281 54.375 26.183594 C 54.367188 25.222656 53.992188 24.4375 53.417969 24.199219 C 52.855469 23.960938 52.859375 23.960938 52.316406 24.234375 M 60.734375 24.195312 C 60.210938 24.429688 59.949219 24.835938 59.765625 25.71875 C 59.636719 26.332031 59.652344 26.53125 59.863281 27.1875 C 60.167969 28.109375 60.601562 28.484375 61.351562 28.464844 C 62.285156 28.441406 62.882812 27.582031 62.882812 26.277344 C 62.882812 24.683594 61.867188 23.695312 60.734375 24.195312 M 69.371094 24.195312 C 68.847656 24.429688 68.585938 24.835938 68.402344 25.71875 C 68.273438 26.332031 68.289062 26.53125 68.503906 27.1875 C 68.804688 28.109375 69.238281 28.484375 69.988281 28.464844 C 70.921875 28.441406 71.523438 27.582031 71.523438 26.277344 C 71.523438 24.683594 70.503906 23.695312 69.371094 24.195312 " fill-opacity="1" fill-rule="evenodd"/></svg>